<svg width="84" height="100" viewBox="0 0 84 100" fill="none" xmlns="http://www.w3.org/2000/svg">
<g clip-path="url(#clip0_5_20)">
<path fill-rule="evenodd" clip-rule="evenodd" d="M8.82999 76.15C7.65999 75.24 7.11999 74.03 7.21999 72.52C7.05999 60.07 7.14999 47.62 7.46999 35.17C8.20999 33.96 8.63999 34.06 8.76999 35.46C8.66999 49.02 8.68999 62.59 8.82999 76.15Z" fill="#D6662B"/>
<path fill-rule="evenodd" clip-rule="evenodd" d="M33.86 65.18C33.67 76.39 33.62 87.6 33.72 98.81C32.68 98.97 32.15 98.53 32.11 97.5C32.04 86.88 32.09 76.27 32.24 65.66C32.62 65.04 33.16 64.88 33.86 65.18Z" fill="#DF6627"/>
<path fill-rule="evenodd" clip-rule="evenodd" d="M18.45 15.54C16.47 15.61 14.5 15.73 12.53 15.89C10.61 17.31 10.07 19.16 10.92 21.45C14.54 26.95 14.89 22.66 18.99 23.4C17.49 25.03 15.65 25.69 13.46 25.38C9.45001 23.96 8.20001 21.26 9.70001 17.28C12.06 13.78 14.97 13.2 18.45 15.54Z" fill="#DA6020"/>
<path fill-rule="evenodd" clip-rule="evenodd" d="M22.98 46.98C22.34 46.88 21.71 46.9 21.08 47.06C21.03 43.2 21.01 39.35 21.03 35.5C21.18 34.11 21.78 33.82 22.83 34.64C23 38.75 23.05 42.86 22.98 46.98Z" fill="#FFEBE1"/>
<path fill-rule="evenodd" clip-rule="evenodd" d="M69.38 85.59C69.79 85.63 70.2 85.69 70.62 85.75C72.6 86.77 73.26 88.34 72.6 90.45C73.55 92.93 73.43 92.96 72.55 95.13C71.46 96.77 68.56 96.73 67.22 95.41C68.21 94.95 69.27 94.75 70.42 94.82C71.8 94.28 72.15 93.34 71.47 92C68.51 90.44 68.56 90.76 71.06 89.33C72.23 86.41 69.01 87.7 68.09 86.48C68.37 85.98 68.8 85.68 69.38 85.59Z" fill="#FEE9DD"/>
<path fill-rule="evenodd" clip-rule="evenodd" d="M14.96 90.31C15.01 90.58 15.07 90.84 15.12 91.11C12.32 93.51 15.66 92.99 17.35 93.1C17.28 93.37 17.21 93.65 17.14 93.92C15.58 94.16 14.01 94.23 12.44 94.13C9.60001 93.6 13.19 91.29 14.03 90.52C14.31 90.28 14.62 90.22 14.96 90.31Z" fill="#FFF0E8"/>
<path fill-rule="evenodd" clip-rule="evenodd" d="M16.08 88.73C15.99 88.54 15.89 88.35 15.8 88.16C16.06 87.09 15.83 86.17 15.11 85.4C13.99 85.09 12.88 85.06 11.78 85.32C11.71 82.78 18.79 83.11 16.92 88.43C16.72 88.78 16.44 88.88 16.08 88.73Z" fill="#FFF1EB"/>
<path fill-rule="evenodd" clip-rule="evenodd" d="M68.26 28.23C69.48 28.37 70.7 28.35 71.92 28.17C71.49 29.19 68.3 29.04 68.26 28.23Z" fill="#FE955D"/>
<path fill-rule="evenodd" clip-rule="evenodd" d="M38.64 5.03C38.91 6.14 38.8 7.21 38.31 8.24C37.81 7.08 37.92 6.01 38.64 5.03Z" fill="#FF7833"/>
<path fill-rule="evenodd" clip-rule="evenodd" d="M75.41 22.12C76.54 22.48 75.98 24.2 75.36 24.86C75.36 23.94 75.38 23.03 75.41 22.12Z" fill="#FF9A65"/>
<path fill-rule="evenodd" clip-rule="evenodd" d="M14.96 90.31C15.26 90.26 15.55 90.2 15.85 90.15C15.73 90.56 15.48 90.88 15.12 91.11C15.07 90.84 15.01 90.58 14.96 90.31ZM17.35 93.1C17.82 93.49 17.75 93.76 17.14 93.92C17.21 93.65 17.28 93.37 17.35 93.1Z" fill="#FFB68F"/>
<path fill-rule="evenodd" clip-rule="evenodd" d="M47.93 9.99001C47.82 10.47 47.52 10.77 47.04 10.88C47.3 10.54 47.59 10.24 47.93 9.99001Z" fill="#FF9760"/>
<path fill-rule="evenodd" clip-rule="evenodd" d="M15.8 88.16C15.89 88.35 15.99 88.54 16.08 88.73C15.78 88.75 15.47 88.77 15.16 88.79C15.24 88.44 15.46 88.24 15.8 88.16Z" fill="#FEC3A3"/>
<path fill-rule="evenodd" clip-rule="evenodd" d="M22.27 7C22.91 4.81 24.26 4.24 26.33 5.28C29.03 7.88 31.68 10.53 34.28 13.25C35.74 14.69 47.87 13.7 50.51 13.96C54.68 13.96 60.17 1.5 64 5.6C65.56 8.86 53.11 18.63 51.08 21.55C49.53 23.32 50.53 55.67 50.32 60.46C49.86 64.12 45.83 64.55 44.27 61.42C44.04 53.11 43.97 44.79 44.05 36.46C43.6 34.84 43.15 34.82 42.69 36.42C42.72 44.61 42.7 52.79 42.61 60.97C41.26 64.98 35.93 63.72 36.34 59.47C36.45 47.14 36.38 34.81 36.15 22.5C33.09 18.04 24.54 11.09 22.27 7Z" fill="#E24F02" stroke="#E24F02" stroke-width="0.5"/>
<path fill-rule="evenodd" clip-rule="evenodd" d="M18.45 15.54C20.63 18.03 20.81 20.65 18.99 23.4C14.89 22.66 14.54 26.95 10.92 21.45C10.07 19.16 10.61 17.31 12.53 15.89C14.5 15.73 16.47 15.61 18.45 15.54ZM33.86 65.18C39.76 64.93 45.67 64.76 51.59 64.69C52.28 64.6 52.8 64.85 53.15 65.44C53.33 75.45 53.41 85.46 53.38 95.48C53.18 96.75 53.84 98.14 52.47 98.88C46.22 99.06 39.97 99.03 33.72 98.81C33.62 87.6 33.67 76.39 33.86 65.18ZM40.28 80.69C43.35 80.08 41.31 86.72 42.2 88.41C44.9 91.08 44.35 78.44 42.67 78.72C41.36 78.78 40.57 79.43 40.28 80.69Z" fill="#EA5101" stroke="#EA5101" stroke-width="0.5"/>
<path fill-rule="evenodd" clip-rule="evenodd" d="M40.28 80.69C40.57 79.43 41.36 78.78 42.67 78.72C44.35 78.44 44.9 91.08 42.2 88.41C41.31 86.72 43.35 80.08 40.28 80.69Z" fill="#FEDCC9"/>
<path fill-rule="evenodd" clip-rule="evenodd" d="M79.71 97.81C79.33 97.46 79.17 97.02 79.23 96.49C79.37 92.51 79.26 88.55 78.9 84.59C78.07 83.23 74.9 83.72 73.55 83.69C72.3 83.98 71.32 84.67 70.62 85.75C70.2 85.69 69.79 85.63 69.38 85.59C67.57 83.29 65.19 83.39 62.52 83.7C61.95 83.76 61.56 84.05 61.34 84.57C61.25 89.32 61.07 94.06 60.81 98.8C60.17 98.92 59.65 98.74 59.26 98.28C59.32 93.36 59.31 88.45 59.26 83.54C59.38 82.23 60.12 81.7 61.48 81.93C67.47 81.81 73.46 81.85 79.44 82.05C79.96 82.35 80.22 82.81 80.21 83.43C80.14 87.12 80.13 90.81 80.2 94.5C80.18 95.63 80.02 96.73 79.71 97.81Z" fill="#DB540E"/>
<path fill-rule="evenodd" clip-rule="evenodd" d="M47.93 9.99C47.59 10.24 47.3 10.54 47.04 10.88C44.15 13.63 39.68 11.63 38.31 8.24C38.8 7.21 38.91 6.14 38.64 5.03C41.85 -3.55 52.63 3.03 47.93 9.99ZM75.41 22.12C75.38 23.03 75.36 23.94 75.36 24.86C74.78 26.56 73.64 27.67 71.92 28.17C70.7 28.35 69.48 28.37 68.26 28.23C66.04 27.47 64.88 25.92 64.77 23.56C65.18 16.01 74.15 15.99 75.41 22.12ZM22.98 46.98C23.05 42.86 23 38.75 22.83 34.64C21.78 33.82 21.18 34.11 21.03 35.5C21.01 39.35 21.03 43.2 21.08 47.06C21.32 55.85 21.4 64.65 21.33 73.46C20.87 77.09 16.41 77.94 15.19 74.44C15.03 66.46 14.98 58.47 15.03 50.48C14.71 47.6 14.25 47.58 13.68 50.4C13.7 58.25 13.7 66.11 13.68 73.96C12.9 76.16 11.01 77.67 8.83001 76.15C8.69001 62.59 8.67001 49.02 8.77001 35.46C8.64001 34.06 8.21001 33.96 7.47001 35.17C7.23001 34.44 6.81001 34.25 6.20001 34.62C5.56001 37.05 6.14001 43.57 5.96001 46.46C5.73001 50.02 1.64001 49.73 1.25001 46.46C1.96001 39.88 -1.91999 27.03 8.49001 27.1C28.26 26.47 27.88 26.94 27.34 46.48C27.01 49.59 23.43 49.8 22.98 46.98ZM56.85 48C56.82 43.83 56.86 39.66 56.97 35.49C57.91 31.51 60.81 30.78 64.52 30.55C68.84 30.46 73.16 30.57 77.47 30.87C80.23 31.33 81.97 32.93 82.69 35.66C82.69 40.28 82.72 44.9 82.75 49.53C82.76 52.78 79.03 53.2 78.16 50.4C78.05 46.42 78.04 42.43 78.16 38.45C78.1 37.93 77.87 37.52 77.46 37.21C76.91 37.84 76.66 38.59 76.71 39.46C76.8 51.8 76.83 64.14 76.79 76.48C76.46 79.56 74.83 80.59 71.9 79.57C71.26 79.01 70.87 78.3 70.71 77.46C70.77 68.95 70.7 60.43 70.5 51.92C69.7 51.24 69.23 51.42 69.07 52.48C69.05 61.09 68.93 69.69 68.73 78.28C66.69 81.9 62.11 79.7 62.85 75.5C62.87 63.17 62.88 50.84 62.88 38.52C62.31 37.68 61.79 37.71 61.31 38.6C61.32 42.21 61.31 45.83 61.29 49.44C61.26 51.98 60.07 52.79 57.71 51.86C56.59 51.09 56.92 49.17 56.85 48ZM3.93001 98.01C3.95001 91.83 3.95001 85.65 3.94001 79.47C3.91001 78.88 4.13001 78.42 4.61001 78.09C11.18 77.89 17.76 77.92 24.33 78.16C24.76 78.5 24.95 78.95 24.9 79.5C24.87 85.5 24.87 91.5 24.9 97.49C24.99 98.01 24.84 98.44 24.45 98.78C18.13 98.98 11.81 99.05 5.47001 98.99C4.64001 99.1 4.13001 98.77 3.93001 98.01ZM15.8 88.16C15.46 88.24 15.24 88.44 15.16 88.79C15.09 89.3 15.03 89.8 14.96 90.31C14.62 90.22 14.31 90.28 14.03 90.52C13.19 91.29 9.60001 93.6 12.44 94.13C14.01 94.23 15.58 94.16 17.14 93.92C17.75 93.76 17.82 93.49 17.35 93.1C15.66 92.99 12.32 93.51 15.12 91.11C15.48 90.88 15.73 90.56 15.85 90.15C15.93 89.68 16.01 89.21 16.08 88.73C16.44 88.88 16.72 88.78 16.92 88.43C18.79 83.11 11.71 82.78 11.78 85.32C12.88 85.06 13.99 85.09 15.11 85.4C15.83 86.17 16.06 87.09 15.8 88.16ZM69.38 85.59C68.8 85.68 68.37 85.98 68.09 86.48C69.01 87.7 72.23 86.41 71.06 89.33C68.56 90.76 68.51 90.44 71.47 92C72.15 93.34 71.8 94.28 70.42 94.82C69.27 94.75 68.21 94.95 67.22 95.41C68.56 96.73 71.46 96.77 72.55 95.13C73.43 92.96 73.55 92.93 72.6 90.45C73.26 88.34 72.6 86.77 70.62 85.75C71.32 84.67 72.3 83.98 73.55 83.69C74.9 83.72 78.07 83.23 78.9 84.59C79.26 88.55 79.37 92.51 79.23 96.49C79.17 97.02 79.33 97.46 79.71 97.81C77.67 100.19 64.31 98.59 60.81 98.8C61.07 94.06 61.25 89.32 61.34 84.57C61.56 84.05 61.95 83.76 62.52 83.7C65.19 83.39 67.57 83.29 69.38 85.59Z" fill="#E55002" stroke="#E55002" stroke-width="0.5"/>
</g>
<defs>
<clipPath id="clip0_5_20">
<rect width="84" height="100" fill="white"/>
</clipPath>
</defs>
</svg>
